# xmcd
#
# Track frame offsets:
#	150
#	17800
#	34310
#	50365
#	68207
#	85887
#	99420
#	113627
#	130060
#	148250
#	164925
#	182575
#	199084
#	215142
#	232984
#	250587
#	264120
#	278330
#	294760
#	312950
#
# Disc length: 4394 seconds
#
# Revision: 1
# Processed by: cddbd v1.5.1PL2 Copyright (c) Steve Scherf et al.
# Submitted via: audiograbber 1.83.01
#
DISCID=1b112814
DTITLE=Top Hits Monthly Country - Thmc0408
DYEAR=2004
DGENRE=Karaoke
TTITLE0=Andy Griggs - She Thinks She Needs Me (Vocal)
TTITLE1=Jenkins - Blame It On Mama (Vocal)
TTITLE2=Terri Clark - Girls Lie Too (Vocal)
TTITLE3=Sara Evans - Suds In The Bucket (Vocal)
TTITLE4=Kenny Chesney - I Go Back (Vocal)
TTITLE5=Travis Tritt - Girl's Gone Wild The (Vocal)
TTITLE6=Trace Adkins - Rough And Ready (Vocal)
TTITLE7=Big And Rich - Save A Horse (Ride A Cowboy) (Vocal)
TTITLE8=Joe Nichols - If Nobody Believed In You (Vocal)
TTITLE9=Blake Shelton - When Somebody Knows You That Well (Vocal)
TTITLE10=Andy Griggs - She Thinks She Needs Me
TTITLE11=Jenkins - Blame It On Mama
TTITLE12=Terri Clark - Girls Lie Too
TTITLE13=Sara Evans - Suds In The Bucket
TTITLE14=Kenny Chesney - I Go Back
TTITLE15=Travis Tritt - Girl's Gone Wild The
TTITLE16=Trace Adkins - Rough And Ready
TTITLE17=Big And Rich - Save A Horse (Ride A Cowboy)
TTITLE18=Joe Nichols - If Nobody Believed In You
TTITLE19=Blake Shelton - When Somebody Knows You That Well
EXTD=
EXTT0=
EXTT1=
EXTT2=
EXTT3=
EXTT4=
EXTT5=
EXTT6=
EXTT7=
EXTT8=
EXTT9=
EXTT10=
EXTT11=
EXTT12=
EXTT13=
EXTT14=
EXTT15=
EXTT16=
EXTT17=
EXTT18=
EXTT19=
PLAYORDER=
